<?xml version="1.0" standalone="no"?>
<!DOCTYPE svg PUBLIC "-//W3C//DTD SVG 20010904//EN"
 "http://www.w3.org/TR/2001/REC-SVG-20010904/DTD/svg10.dtd">
<svg version="1.0" xmlns="http://www.w3.org/2000/svg"
 width="2406.000000pt" height="2406.000000pt" viewBox="0 0 2406.000000 2406.000000"
 preserveAspectRatio="xMidYMid meet">
<metadata>
Created by potrace 1.11, written by Peter Selinger 2001-2013
</metadata>
<g transform="translate(0.000000,2406.000000) scale(0.100000,-0.100000)"
fill="#000000" stroke="none">
<path d="M11085 24044 c-549 -12 -865 -46 -1245 -134 -1573 -363 -2880 -991
-3990 -1916 -330 -275 -768 -701 -1042 -1014 -695 -794 -1201 -1610 -1576
-2540 -172 -427 -270 -735 -477 -1492 l-135 -496 -19 -3794 c-40 -7728 -37
-8917 19 -9878 41 -686 117 -1038 287 -1335 90 -156 254 -394 346 -501 180
-210 415 -419 645 -573 381 -255 546 -312 997 -342 218 -15 607 -7 735 15 207
36 362 86 532 173 207 107 424 296 603 525 460 590 614 1137 615 2188 1 334
15 649 35 765 47 269 158 417 410 542 360 180 958 231 1354 117 170 -50 317
-149 341 -231 38 -135 87 -579 115 -1058 70 -1193 216 -1643 720 -2223 120
-139 337 -350 445 -434 364 -282 755 -402 1310 -402 773 0 1304 271 1780 909
197 265 353 607 445 978 92 375 137 750 170 1432 31 640 50 744 155 838 94 84
320 175 554 222 464 93 851 29 961 -159 65 -110 85 -273 125 -1021 44 -811 71
-996 187 -1295 112 -286 313 -652 489 -887 112 -150 365 -404 504 -507 425
-315 873 -463 1505 -497 455 -24 681 14 1001 170 395 193 733 505 1032 952
111 167 204 340 354 663 l139 299 -4 6376 c-4 6235 -7 6873 -37 7506 -25 545
-54 757 -160 1170 -266 1037 -691 2009 -1246 2845 -338 511 -676 922 -1129
1376 -1134 1135 -2222 1803 -3760 2307 -725 238 -1037 295 -1770 327 -462 20
-1960 42 -2320 34z m1565 -1454 c840 -49 1427 -122 1805 -226 624 -172 1790
-695 2315 -1039 276 -180 437 -317 874 -739 521 -503 895 -915 1118 -1228 244
-345 585 -1015 838 -1648 307 -769 339 -965 370 -2310 41 -1775 75 -11597 42
-12365 -26 -610 -49 -769 -139 -950 -179 -359 -511 -608 -838 -631 -139 -10
-264 26 -432 126 -249 147 -519 412 -640 628 -47 83 -80 190 -103 332 -32 191
-40 324 -50 795 -10 468 -18 617 -50 847 -97 700 -353 1095 -913 1412 -670
379 -1669 410 -2491 77 -268 -108 -458 -225 -684 -419 -515 -442 -612 -711
-672 -1867 -45 -863 -93 -1192 -209 -1430 -95 -194 -244 -329 -511 -466 -82
-42 -88 -44 -175 -44 -85 0 -96 3 -203 49 -285 122 -445 260 -550 471 -136
275 -190 635 -237 1600 -39 775 -67 907 -272 1248 -273 454 -633 743 -1130
907 -531 174 -1279 208 -1891 84 -684 -139 -1226 -475 -1545 -959 -65 -99
-161 -284 -207 -399 -88 -223 -119 -514 -120 -1126 -1 -816 -91 -1273 -308
-1566 -218 -294 -506 -369 -827 -215 -111 53 -225 140 -368 284 -105 104 -129
134 -160 199 -120 251 -163 677 -187 1898 -28 1359 -20 9456 10 10735 35 1475
98 2059 291 2660 200 628 480 1232 808 1745 299 468 599 839 1016 1256 255
255 424 407 663 598 1005 801 2231 1359 3492 1590 290 53 504 78 830 96 202
11 1202 4 1440 -10z"/>
<path d="M13670 21649 c-78 -13 -133 -43 -184 -100 -60 -66 -88 -143 -90 -239
-1 -67 3 -84 32 -142 62 -126 173 -201 380 -257 404 -110 1105 -425 1556 -699
1336 -811 2250 -2033 2631 -3517 146 -569 160 -854 170 -3346 6 -1812 18
-2335 60 -2636 18 -125 32 -162 78 -197 147 -113 414 -93 535 38 47 51 57 82
71 221 38 358 54 1032 54 2235 0 1761 -34 2701 -119 3250 -302 1956 -1490
3677 -3235 4685 -595 344 -1382 659 -1759 705 -95 11 -103 11 -180 -1z"/>
<path d="M7810 16710 c-695 -96 -1255 -614 -1435 -1330 -41 -159 -55 -309 -55
-566 l0 -234 1690 0 1690 0 0 234 c0 410 -51 658 -195 946 -243 488 -666 821
-1180 930 -114 24 -404 35 -515 20z m346 -501 c377 -52 707 -295 891 -655 87
-170 133 -330 149 -521 l7 -83 -1193 0 -1193 0 7 83 c16 191 62 351 149 521
235 459 707 721 1183 655z"/>
<path d="M13070 16710 c-695 -96 -1255 -614 -1435 -1330 -41 -159 -55 -309
-55 -566 l0 -234 1690 0 1690 0 0 234 c0 410 -51 658 -195 946 -243 488 -666
821 -1180 930 -114 24 -404 35 -515 20z m346 -501 c377 -52 707 -295 891 -655
87 -170 133 -330 149 -521 l7 -83 -1193 0 -1193 0 7 83 c16 191 62 351 149
521 235 459 707 721 1183 655z"/>
</g>
</svg>
